{"title":"Thor The Dark World 2013 1080p BrRip 6CH 639Kbps x264 Pimp4003","uid":9573607,"size":3167333540,"categoryP":"video","categoryS":"hd___movies","magnet":"?xt=urn:btih:05ce39a660f9f3c54df8fbc40e623f062d48d453&amp;dn=Thor+The+Dark+World+2013+1080p+BrRip+6CH+639Kbps+x264+Pimp4003&amp;tr=udp%3A%2F%2Ftracker.openbittorrent.com%3A80&amp;tr=udp%3A%2F%2Fopen.demonii.com%3A1337&amp;tr=udp%3A%2F%2Ftracker.coppersurfer.tk%3A6969&amp;tr=udp%3A%2F%2Fexodus.desync.com%3A6969","seeders":4,"leechers":0,"uploader":"shawnmurthy","files":-1,"time":1391666173,"description":"WWW.PIMP4003.NET\n\nPIMP4003 AND PIMPRG PRESENTS \n\nThor The Dark World 2013 1080p BrRip 6CH 639Kbps x264 Pimp4003\n &lt;a href=&quot;\nhttp://www.imdb.com/title/tt1981115/&quot; rel=&quot;nofollow&quot; target=&quot;_NEW&quot;&gt;\nhttp://www.imdb.com/title/tt1981115/&lt;/a&gt;\n\nWhen Jane Foster is possessed by a great power, Thor must protect her from a new threat of old times: the Dark Elves.\n\nDirector: Alan Taylor\nWriters: Christopher Yost (screenplay), Christopher Markus (screenplay), 6 more credits Â»\nStars: Chris Hemsworth, Natalie Portman, Tom Hiddleston | See full cast and crew Â»\n\nVideo\nID                                       : 1\nFormat                                   : AVC\nFormat/Info                              : Advanced Video Codec\nFormat profile                           : &lt;a class=&quot;__cf_email__&quot; href=&quot;/cdn-cgi/l/email-protection&quot; data-cfemail=&quot;266b474f48666a120816&quot;&gt;[email&amp;#160;protected]&lt;/a&gt;&lt;script cf-hash='f9e31' type=&quot;text/javascript&quot;&gt;\n/* &lt;![CDATA[ */!function(){try{var t=&quot;currentScript&quot;in document?document.currentScript:function(){for(var t=document.getElementsByTagName(&quot;script&quot;),e=t.length;e--;)if(t[e].getAttribute(&quot;cf-hash&quot;))return t[e]}();if(t&amp;&amp;t.previousSibling){var e,r,n,i,c=t.previousSibling,a=c.getAttribute(&quot;data-cfemail&quot;);if(a){for(e=&quot;&quot;,r=parseInt(a.substr(0,2),16),n=2;a.length-n;n+=2)i=parseInt(a.substr(n,2),16)^r,e+=String.fromCharCode(i);e=document.createTextNode(e),c.parentNode.replaceChild(e,c)}}}catch(u){}}();/* ]]&gt; */&lt;/script&gt;\nFormat settings, CABAC                   : Yes\nFormat settings, ReFrames                : 4 frames\nFormat settings, GOP                     : M=1, N=3\nCodec ID                                 : avc1\nCodec ID/Info                            : Advanced Video Coding\nDuration                                 : 1h 52mn\nBit rate                                 : 3 125 Kbps\nWidth                                    : 1 920 pixels\nHeight                                   : 800 pixels\nDisplay aspect ratio                     : 2.40:1\nFrame rate mode                          : Variable\nFrame rate                               : 23.976 fps\nMinimum frame rate                       : 23.256 fps\nMaximum frame rate                       : 25.000 fps\nColor space                              : YUV\nChroma subsampling                       : 4:2:0\nBit depth                                : 8 bits\nScan type                                : Progressive\nBits/(Pixel*Frame)                       : 0.085\nStream size                              : 2.45 GiB (83%)\nWriting library                          : x264 core 130 r2273 b3065e6\nEncoding settings                        : cabac=1 / ref=1 / deblock=1:0:0 / analyse=0x1:0x111 / me=hex / subme=2 / psy=1 / psy_rd=1.00:0.00 / mixed_ref=0 / me_range=16 / chroma_me=1 / trellis=0 / 8x8dct=0 / cqm=0 / deadzone=21,11 / fast_pskip=1 / chroma_qp_offset=0 / threads=12 / lookahead_threads=4 / sliced_threads=0 / nr=0 / decimate=1 / interlaced=0 / bluray_compat=0 / constrained_intra=0 / bframes=3 / b_pyramid=2 / b_adapt=1 / b_bias=0 / direct=1 / weightb=1 / open_gop=0 / weightp=1 / keyint=240 / keyint_min=24 / scenecut=40 / intra_refresh=0 / rc_lookahead=10 / rc=crf / mbtree=1 / crf=20.0 / qcomp=0.60 / qpmin=0 / qpmax=69 / qpstep=4 / vbv_maxrate=20000 / vbv_bufsize=25000 / crf_max=0.0 / nal_hrd=none / ip_ratio=1.40 / aq=1:1.00\nEncoded date                             : UTC 2014-02-12 08:30:34\nTagged date                              : UTC 2014-02-12 09:20:42\nColor primaries                          : BT.709\nTransfer characteristics                 : BT.709\nMatrix coefficients                      : BT.709\n\nAudio\nID                                       : 2\nFormat                                   : AAC\nFormat/Info                              : Advanced Audio Codec\nFormat profile                           : LC\nCodec ID                                 : 40\nDuration                                 : 1h 52mn\nBit rate mode                            : Variable\nBit rate                                 : 639 Kbps\nMaximum bit rate                         : 1 096 Kbps\nChannel(s)                               : 6 channels\nChannel positions                        : Front: L C R, Side: L R, LFE\nSampling rate                            : 48.0 KHz\nCompression mode                         : Lossy\nStream size                              : 512 MiB (17%)\nLanguage                                 : English\nEncoded date                             : UTC 2014-02-12 08:30:34\nTagged date                              : UTC 2014-02-12 09:20:42\n &lt;a href=&quot;\nhttp://someimage.com/5vCms32&quot; rel=&quot;nofollow&quot; target=&quot;_NEW&quot;&gt;\nhttp://someimage.com/5vCms32&lt;/a&gt; &lt;a href=&quot;\nhttp://someimage.com/P0RHbZa&quot; rel=&quot;nofollow&quot; target=&quot;_NEW&quot;&gt;\nhttp://someimage.com/P0RHbZa&lt;/a&gt; &lt;a href=&quot;\nhttp://someimage.com/BZwfGsl&quot; rel=&quot;nofollow&quot; target=&quot;_NEW&quot;&gt;\nhttp://someimage.com/BZwfGsl&lt;/a&gt; &lt;a href=&quot;\nhttp://someimage.com/1lgs8Pz&quot; rel=&quot;nofollow&quot; target=&quot;_NEW&quot;&gt;\nhttp://someimage.com/1lgs8Pz&lt;/a&gt;\n","torrent":{"xt":"urn:btih:05ce39a660f9f3c54df8fbc40e623f062d48d453","amp;dn":"Thor+The+Dark+World+2013+1080p+BrRip+6CH+639Kbps+x264+Pimp4003","amp;tr":["udp%3A%2F%2Ftracker.openbittorrent.com%3A80","udp%3A%2F%2Fopen.demonii.com%3A1337","udp%3A%2F%2Ftracker.coppersurfer.tk%3A6969","udp%3A%2F%2Fexodus.desync.com%3A6969"],"infoHash":"05ce39a660f9f3c54df8fbc40e623f062d48d453","infoHashBuffer":{"type":"Buffer","data":[5,206,57,166,96,249,243,197,77,248,251,196,14,98,63,6,45,72,212,83]},"announce":[],"urlList":[]}}